<svg width="118" height="144" viewBox="0 0 118 144" fill="none" xmlns="http://www.w3.org/2000/svg">
<path d="M59.0625 0.25C73.2075 0.25 84.6875 11.73 84.6875 25.875V26.0801C99.0887 27.7713 110.312 40.0199 110.312 54.9336C110.312 59.5973 109.185 64.0054 107.237 67.9004C113.695 72.7178 118 80.3536 118 89.0146C118 103.57 106.11 115.46 91.5547 115.46H66.75V143.853H46.25V115.46H26.5703C12.0153 115.46 0.125 103.57 0.125 89.0146C0.125114 80.3536 4.43032 72.7178 10.8877 67.9004C8.79943 63.7335 7.74564 59.1242 7.81543 54.4639C7.88528 49.8039 9.07621 45.2292 11.2881 41.127C13.5002 37.0245 16.6681 33.5146 20.5234 30.8955C24.3788 28.2764 28.8086 26.6249 33.4375 26.0801V25.875C33.4375 11.73 44.9175 0.25 59.0625 0.25Z" fill="#6BCCB0"/>
</svg>
